<?xml version="1.0" standalone="no"?>
<!DOCTYPE svg PUBLIC "-//W3C//DTD SVG 20010904//EN"
 "http://www.w3.org/TR/2001/REC-SVG-20010904/DTD/svg10.dtd">
<svg version="1.0" xmlns="http://www.w3.org/2000/svg"
 width="900.000000pt" height="843.000000pt" viewBox="0 0 900.000000 843.000000"
 preserveAspectRatio="xMidYMid meet">
<metadata>
Created by potrace 1.10, written by Peter Selinger 2001-2011
</metadata>
<g transform="translate(0.000000,843.000000) scale(0.100000,-0.100000)"
fill="#d8ab9f" stroke="none">
<path d="M3965 7760 c-214 -16 -572 -84 -715 -135 -19 -7 -60 -20 -90 -29 -30
-10 -73 -24 -95 -33 -22 -8 -58 -22 -80 -30 -78 -30 -148 -61 -270 -120 -340
-164 -643 -381 -926 -663 -80 -80 -165 -169 -190 -199 -24 -30 -58 -71 -75
-90 -49 -57 -158 -208 -214 -296 -19 -29 -111 -182 -126 -210 -31 -54 -128
-256 -162 -335 -8 -19 -21 -48 -28 -63 -8 -16 -14 -33 -14 -39 0 -5 -6 -24
-13 -41 -17 -39 -32 -83 -57 -162 -39 -124 -50 -164 -50 -178 0 -8 -6 -37 -14
-63 -101 -352 -123 -942 -52 -1384 36 -222 116 -524 172 -647 8 -17 14 -36 14
-41 0 -6 6 -23 14 -39 8 -15 24 -53 36 -83 78 -198 251 -499 404 -705 144
-193 382 -448 546 -586 36 -30 67 -57 70 -60 12 -13 210 -158 276 -201 187
-124 444 -258 634 -333 25 -9 60 -23 78 -31 18 -8 37 -14 43 -14 6 0 25 -6 42
-13 29 -13 63 -23 197 -63 501 -146 1152 -169 1636 -58 33 8 68 14 78 14 9 0
38 6 64 14 26 8 76 22 112 31 83 23 236 73 277 91 17 8 37 14 45 14 7 0 22 7
32 15 11 8 25 15 32 15 28 0 336 151 429 211 17 10 37 22 45 25 18 8 213 139
286 192 125 90 265 212 401 350 154 154 223 238 420 508 11 14 20 30 102 164
39 64 95 167 126 230 54 110 64 132 101 218 9 20 23 50 30 65 8 16 14 35 14
44 0 8 6 27 14 41 20 40 32 78 81 247 10 33 21 76 25 95 4 19 13 55 19 80 103
423 114 1046 25 1436 -8 33 -14 69 -14 79 0 10 -6 41 -14 69 -8 28 -22 78 -31
111 -27 103 -48 169 -62 202 -7 17 -13 36 -13 42 0 6 -6 25 -14 43 -8 18 -22
53 -31 78 -23 60 -43 108 -60 145 -23 50 -116 239 -125 255 -5 8 -35 58 -66
110 -31 52 -72 120 -92 150 -37 54 -210 290 -221 300 -3 3 -37 41 -76 85 -101
116 -205 218 -366 359 -78 69 -359 276 -374 276 -2 0 -23 13 -47 29 -95 63
-327 184 -456 236 -48 20 -100 43 -115 51 -16 8 -33 14 -39 14 -5 0 -24 6 -41
13 -101 43 -362 116 -485 137 -29 4 -74 13 -100 19 -142 31 -279 43 -537 46
-148 2 -315 0 -370 -5z m670 -198 c39 -6 102 -16 140 -21 39 -6 104 -17 145
-26 41 -8 97 -20 125 -25 27 -5 61 -14 75 -18 14 -5 52 -17 85 -27 82 -24 160
-50 225 -75 30 -12 67 -25 81 -30 14 -4 34 -12 45 -18 10 -5 95 -47 187 -93
167 -83 187 -94 238 -127 15 -9 51 -31 80 -49 47 -28 129 -86 234 -165 223
-170 505 -459 634 -648 13 -19 26 -37 30 -40 12 -10 94 -132 108 -160 4 -8 23
-39 43 -70 20 -30 44 -68 52 -85 8 -16 35 -68 60 -115 38 -73 83 -172 133
-295 7 -16 20 -52 30 -80 9 -27 21 -58 26 -67 5 -10 13 -34 18 -55 28 -108 34
-129 41 -143 4 -9 10 -31 14 -50 4 -19 13 -62 21 -95 7 -33 18 -83 25 -110 6
-28 15 -89 20 -135 5 -47 14 -112 20 -145 13 -77 13 -579 0 -665 -6 -36 -15
-103 -20 -150 -9 -79 -16 -121 -42 -230 -5 -25 -16 -70 -23 -100 -7 -30 -20
-80 -29 -110 -9 -30 -21 -73 -27 -95 -6 -22 -14 -44 -20 -50 -5 -5 -9 -17 -9
-27 0 -9 -6 -32 -14 -50 -8 -18 -31 -73 -51 -123 -39 -94 -134 -291 -186 -385
-45 -80 -230 -355 -248 -370 -4 -3 -22 -25 -41 -50 -126 -166 -336 -375 -535
-535 -94 -75 -159 -121 -330 -230 -111 -72 -270 -154 -416 -215 -68 -29 -133
-56 -144 -61 -17 -7 -103 -36 -271 -89 -16 -5 -50 -14 -75 -19 -24 -5 -64 -15
-89 -21 -99 -24 -146 -33 -209 -41 -36 -4 -95 -13 -131 -20 -89 -16 -701 -16
-790 0 -36 7 -99 16 -140 21 -41 5 -88 13 -103 19 -16 6 -40 11 -54 11 -15 0
-51 7 -82 16 -31 8 -81 22 -111 31 -30 8 -73 21 -95 28 -22 8 -55 16 -72 20
-18 4 -35 11 -38 16 -4 5 -15 9 -25 9 -18 0 -40 8 -125 45 -16 8 -48 21 -70
30 -144 60 -393 193 -520 279 -83 56 -280 204 -340 257 -65 56 -298 289 -354
354 -66 75 -210 269 -272 365 -76 116 -107 173 -184 330 -75 152 -76 154 -105
230 -12 30 -26 64 -31 75 -35 81 -122 384 -139 485 -14 83 -31 174 -41 230
-30 158 -29 788 1 890 5 19 10 50 10 69 0 19 6 62 14 95 7 34 21 97 31 141 9
44 23 100 30 125 25 86 79 255 91 285 100 245 158 368 223 475 11 19 24 42 27
50 19 42 203 309 280 405 101 126 354 384 463 471 177 141 247 191 401 283 58
34 112 67 120 72 30 18 276 136 320 154 25 10 59 24 77 31 17 8 37 14 45 14 8
0 18 4 23 9 19 17 294 97 430 126 44 9 100 21 125 26 25 6 86 15 135 21 50 5
119 13 155 18 89 11 579 5 665 -8z"/>
<path d="M3990 7495 c-161 -13 -217 -20 -370 -52 -165 -33 -417 -105 -505
-143 -11 -5 -45 -19 -75 -31 -490 -195 -983 -561 -1300 -964 -30 -39 -65 -81
-77 -95 -13 -14 -23 -28 -23 -32 0 -3 -6 -13 -13 -20 -20 -22 -146 -215 -177
-273 -9 -16 -37 -68 -63 -114 -26 -46 -47 -85 -47 -87 0 -2 -16 -39 -36 -81
-45 -100 -43 -95 -98 -240 -8 -21 -22 -63 -31 -93 -10 -30 -23 -73 -30 -95 -8
-22 -17 -56 -21 -75 -3 -19 -10 -41 -14 -50 -17 -33 -54 -247 -77 -440 -21
-175 -23 -492 -5 -670 17 -166 58 -395 88 -490 8 -25 14 -53 14 -62 0 -10 6
-32 14 -50 8 -18 23 -62 35 -98 23 -74 66 -195 81 -225 5 -11 23 -51 40 -90
59 -131 152 -308 176 -336 8 -8 14 -18 14 -21 0 -19 203 -304 273 -384 257
-294 424 -443 702 -628 184 -123 373 -225 535 -290 36 -15 72 -30 80 -35 9 -5
30 -12 48 -15 17 -4 34 -12 37 -17 4 -5 15 -9 25 -9 11 0 34 -6 52 -14 83 -35
312 -92 478 -120 372 -62 760 -59 1135 9 162 29 383 89 518 141 20 8 56 21 80
30 130 50 341 155 484 241 128 77 344 231 438 313 61 53 293 286 354 355 40
45 173 219 211 275 8 12 26 39 40 59 98 139 242 418 313 606 62 164 89 250
107 333 5 23 14 51 20 61 5 11 10 33 10 49 0 16 6 52 14 78 33 114 65 428 65
649 0 160 -21 444 -38 510 -6 22 -11 57 -11 78 0 21 -4 46 -10 56 -5 10 -14
43 -19 72 -27 143 -83 330 -137 456 -8 17 -14 36 -14 41 0 6 -7 23 -15 39 -8
15 -26 55 -41 88 -34 77 -85 178 -118 235 -14 25 -30 54 -35 65 -5 11 -21 37
-35 58 -14 21 -26 40 -26 42 0 6 -89 134 -138 200 -223 294 -519 576 -795 757
-56 37 -107 72 -114 78 -7 5 -15 10 -19 10 -3 0 -34 17 -67 37 -63 38 -330
173 -342 173 -4 0 -21 6 -38 14 -33 14 -96 38 -157 61 -19 8 -60 21 -90 30
-30 10 -73 24 -95 31 -23 8 -48 14 -57 14 -8 0 -38 6 -64 14 -135 39 -294 64
-514 81 -206 17 -306 16 -530 0z m2590 -1980 c96 -50 96 -242 0 -525 -40 -118
-59 -167 -69 -188 -5 -9 -37 -75 -72 -147 -35 -71 -76 -152 -92 -180 -26 -45
-29 -56 -24 -120 13 -199 60 -346 124 -386 31 -19 31 -19 67 2 72 42 161 206
173 319 4 47 2 65 -11 85 -24 36 -46 112 -46 157 0 20 6 61 14 90 46 173 175
260 296 198 46 -24 66 -50 75 -102 7 -34 5 -38 -14 -38 -14 0 -21 6 -21 19 0
11 -15 36 -34 55 -45 48 -80 48 -129 1 -55 -53 -79 -116 -79 -206 -1 -83 8
-105 71 -171 41 -45 54 -46 112 -14 88 49 237 86 348 86 77 0 151 -18 151 -36
0 -11 -26 -14 -131 -14 -158 0 -268 -26 -352 -83 l-27 -19 32 -40 c58 -73 68
-101 68 -186 0 -88 -9 -107 -73 -153 -34 -25 -49 -29 -104 -29 -58 0 -68 3
-94 29 -28 29 -29 32 -29 130 0 59 4 101 10 101 5 0 13 12 16 28 4 15 16 39
27 54 17 23 18 30 7 43 -9 11 -16 13 -23 6 -14 -14 -37 -81 -37 -107 0 -12 -7
-24 -15 -28 -8 -3 -15 -13 -15 -22 0 -21 -59 -119 -97 -160 -92 -103 -192 -97
-264 16 -23 35 -54 114 -75 188 -17 60 -34 76 -51 49 -4 -8 -30 -30 -56 -50
-40 -30 -57 -37 -95 -37 -64 0 -118 37 -151 103 -9 17 -21 32 -27 34 -6 2 -28
-31 -48 -73 -50 -100 -89 -158 -145 -217 -56 -58 -96 -77 -168 -77 -51 0 -56
3 -97 45 -38 39 -44 51 -50 104 -8 73 1 222 19 316 8 39 19 108 26 155 10 76
10 90 -5 118 -9 18 -20 32 -25 32 -12 0 -82 -53 -108 -81 -58 -65 -142 -288
-143 -381 0 -24 -7 -45 -20 -58 -25 -25 -38 -25 -67 2 -22 21 -23 21 -43 3
-11 -10 -20 -25 -20 -34 0 -40 -94 -152 -154 -183 -92 -47 -173 0 -214 125
-19 58 -25 97 -41 251 -3 33 -11 61 -17 63 -7 2 -25 -20 -42 -49 -35 -62 -103
-128 -133 -128 -11 0 -40 11 -63 25 -46 27 -56 25 -56 -12 0 -44 -88 -210
-139 -262 -85 -87 -164 -91 -234 -10 -53 61 -88 151 -117 301 -12 63 -28 81
-44 54 -96 -160 -205 -285 -283 -325 -42 -21 -98 -27 -120 -13 -20 13 -43 78
-43 121 0 23 5 72 12 111 13 75 8 94 -28 114 -10 6 -35 23 -55 39 -20 15 -41
27 -47 27 -11 0 -42 -82 -42 -109 0 -9 -7 -29 -15 -45 -8 -15 -15 -34 -15 -40
0 -23 -72 -152 -103 -184 -67 -71 -158 -92 -211 -51 -34 27 -76 92 -76 118 0
10 -7 34 -15 54 -9 23 -15 75 -16 149 -1 62 -4 116 -6 120 -8 15 -44 -18 -64
-59 -26 -53 -101 -123 -132 -123 -42 0 -88 41 -111 99 -25 62 -34 69 -61 43
-31 -27 -114 -76 -207 -121 l-85 -40 -12 -101 c-6 -55 -11 -122 -11 -148 0
-26 -7 -74 -15 -105 -8 -32 -15 -71 -15 -88 0 -16 -7 -46 -15 -66 -8 -19 -15
-44 -15 -55 0 -11 -6 -32 -14 -46 -7 -15 -26 -53 -41 -86 -98 -212 -324 -263
-470 -104 -22 23 -46 54 -53 67 -55 97 -55 275 0 372 77 138 225 250 448 340
l95 38 7 68 c16 152 16 153 2 153 -7 0 -48 -35 -91 -77 -99 -99 -147 -123
-242 -123 -69 0 -73 1 -106 36 -19 20 -37 46 -40 57 -23 113 -24 131 -14 200
20 126 59 229 126 329 81 123 177 188 276 188 50 0 58 -3 84 -33 38 -43 61
-120 43 -142 -18 -22 -40 -1 -40 40 0 71 -71 105 -146 69 -34 -16 -124 -109
-124 -128 0 -5 -6 -17 -13 -25 -8 -9 -24 -41 -36 -71 -12 -30 -26 -64 -30 -75
-48 -117 -59 -324 -21 -375 22 -29 85 -29 143 0 99 51 257 244 257 313 0 41
21 67 55 67 42 0 46 -24 36 -222 -6 -140 -5 -186 4 -196 10 -12 26 -7 91 28
159 83 220 130 245 187 10 24 19 52 19 61 0 32 70 123 106 138 70 29 142 7
165 -53 13 -35 29 -19 29 30 0 54 22 87 59 87 45 0 55 -32 42 -131 -26 -195
-7 -488 37 -578 45 -89 142 -43 209 99 30 65 70 185 83 256 11 56 10 63 -10
100 -67 118 -66 257 2 321 28 27 93 42 132 32 87 -24 100 -106 41 -253 -19
-48 -35 -93 -35 -99 0 -13 68 -61 139 -98 62 -32 68 -52 46 -156 -46 -220 -21
-255 98 -137 52 52 147 175 147 191 0 4 6 14 14 22 8 9 27 40 42 70 26 53 27
58 29 272 3 151 9 245 21 310 42 233 91 367 172 469 49 63 92 90 143 90 52 0
74 -12 94 -52 62 -126 -44 -480 -271 -897 l-45 -85 6 -135 c8 -170 38 -284 92
-358 52 -72 141 -21 210 118 17 35 36 80 43 99 16 48 50 209 50 240 0 36 31
117 63 168 31 48 75 72 133 72 31 0 45 -8 80 -44 47 -50 54 -46 54 28 0 23 5
47 12 54 15 15 65 16 74 0 4 -6 6 -136 5 -288 -2 -258 -1 -282 19 -346 28 -91
40 -106 85 -106 76 0 142 102 208 317 19 63 27 124 36 304 6 124 10 145 26
157 20 15 55 9 67 -10 4 -6 8 -68 8 -138 0 -70 4 -129 9 -132 5 -3 28 26 51
65 83 140 173 194 264 159 51 -19 71 -138 46 -279 -12 -74 -30 -211 -37 -287
-13 -141 63 -224 148 -163 43 30 116 130 164 223 57 110 71 154 105 321 19 94
75 194 126 226 19 12 49 19 78 19 39 0 53 -5 78 -30 16 -16 34 -30 39 -30 5 0
9 28 9 63 0 34 7 93 15 132 8 38 15 84 15 101 0 17 7 51 15 74 8 23 15 52 15
64 0 11 7 34 15 50 8 15 15 36 15 45 0 10 7 26 15 37 8 10 15 24 15 31 0 21
67 127 102 162 28 29 95 68 121 70 4 1 21 -6 37 -14z m-2100 -1807 c3 -69 8
-129 11 -132 3 -3 25 4 49 15 69 34 149 15 195 -45 50 -65 44 -195 -12 -251
-62 -61 -136 -79 -208 -50 -28 12 -40 13 -50 5 -32 -26 -35 1 -35 270 0 262
-1 270 -21 280 -30 16 -6 42 35 38 l31 -3 5 -127z m1080 -68 c3 -136 8 -195
16 -195 7 0 33 18 60 40 26 22 54 46 63 52 13 11 14 14 2 22 -8 5 -11 16 -8
25 9 23 142 19 142 -4 0 -8 -14 -17 -32 -21 -38 -7 -146 -96 -136 -113 25 -44
123 -151 148 -162 16 -7 33 -16 37 -20 12 -12 -12 -34 -37 -34 -32 0 -65 30
-124 109 -28 38 -58 71 -65 74 -8 3 -26 -6 -40 -20 -33 -33 -36 -90 -6 -116
34 -29 23 -37 -50 -37 -63 0 -70 2 -70 20 0 13 7 20 19 20 10 0 22 7 25 16 3
9 6 123 6 254 0 212 -2 240 -17 248 -28 16 -8 44 29 40 l33 -3 5 -195z m448
121 c21 -13 11 -55 -14 -59 -28 -4 -44 17 -33 46 9 23 25 28 47 13z m869 -18
c14 -21 13 -23 -11 -35 -22 -9 -29 -9 -42 4 -13 13 -14 20 -4 37 14 27 37 24
57 -6z m-309 -79 c9 -62 10 -63 59 -66 36 -2 49 -7 51 -20 3 -14 -6 -17 -50
-20 l-53 -3 0 -121 c0 -107 2 -125 20 -144 16 -17 26 -20 57 -15 41 7 49 -3
22 -29 -30 -31 -122 -9 -140 33 -4 9 -9 75 -12 148 -4 123 -6 132 -25 135 -30
4 -32 27 -3 38 16 6 28 20 32 37 10 48 14 55 27 51 6 -3 13 -13 15 -24z m-150
-66 c31 -31 -2 -74 -36 -46 -25 22 -60 8 -96 -36 -29 -36 -31 -42 -31 -129 0
-90 0 -92 28 -105 15 -7 27 -20 27 -28 0 -11 -17 -14 -80 -14 -65 0 -80 3 -80
15 0 9 11 20 25 25 25 9 25 10 25 139 0 122 -1 129 -22 144 -27 17 -23 25 19
33 24 5 35 1 49 -15 19 -22 44 -28 44 -11 0 13 58 38 91 39 14 1 30 -4 37 -11z
m-1478 -14 c11 -13 10 -16 -8 -21 -26 -6 -29 -41 -8 -81 8 -15 22 -47 31 -72
9 -25 21 -55 26 -67 5 -13 15 -23 23 -23 8 0 18 10 21 23 4 12 13 36 20 52 45
98 65 145 65 154 0 5 -10 11 -22 13 -13 2 -23 10 -23 18 0 12 14 15 69 15 74
0 99 -17 52 -35 -15 -5 -31 -21 -36 -35 -6 -15 -22 -52 -36 -83 -15 -31 -40
-86 -56 -122 -17 -36 -36 -77 -44 -92 -8 -14 -14 -31 -14 -37 0 -12 -2 -15
-50 -72 -38 -47 -80 -65 -110 -49 -28 15 -21 34 16 40 16 3 38 12 49 20 29 22
65 76 65 98 0 17 -23 78 -75 197 -7 17 -22 53 -33 80 -12 30 -28 51 -39 53
-25 5 -37 18 -29 31 11 18 131 14 146 -5z m1078 -142 c3 -152 3 -153 27 -162
14 -5 25 -16 25 -25 0 -12 -14 -15 -75 -15 -81 0 -92 9 -50 42 24 19 25 23 25
145 0 116 -1 125 -20 130 -11 3 -20 11 -20 18 0 15 24 24 60 22 l25 -2 3 -153z
m843 148 c17 -10 19 -23 19 -154 0 -142 0 -143 25 -156 48 -26 31 -40 -50 -40
-68 0 -75 2 -75 20 0 13 7 20 19 20 27 0 31 18 31 152 0 111 -1 120 -20 125
-25 7 -26 30 -2 36 28 8 33 7 53 -3z"/>
<path d="M4043 5446 c-30 -25 -80 -117 -94 -171 -4 -16 -12 -43 -17 -60 -19
-55 -33 -119 -42 -192 -5 -39 -13 -89 -19 -110 -5 -21 -11 -92 -13 -158 -3
-107 -1 -120 15 -123 9 -2 17 1 17 6 0 6 24 61 54 123 50 106 78 172 111 259
13 33 23 64 61 188 9 29 17 91 17 138 2 79 0 87 -22 105 -30 24 -34 24 -68 -5z"/>
<path d="M6524 5458 c-42 -19 -117 -169 -144 -288 -4 -19 -12 -55 -18 -80 -25
-106 -33 -164 -42 -310 -10 -153 -8 -214 9 -225 12 -7 122 221 174 360 84 225
118 396 97 484 -13 54 -40 75 -76 59z"/>
<path d="M3927 5353 c-4 -11 -14 -24 -22 -27 -8 -3 -15 -14 -15 -24 0 -11 -7
-25 -15 -32 -8 -7 -15 -21 -15 -31 0 -10 -6 -33 -14 -51 -22 -53 -46 -142 -46
-174 0 -16 -7 -54 -15 -84 -22 -80 -22 -592 0 -643 8 -20 15 -58 15 -85 0 -31
5 -54 14 -62 8 -6 16 -28 18 -47 2 -20 9 -38 16 -41 18 -5 15 78 -3 102 -10
13 -15 44 -16 85 0 36 -4 99 -8 140 -21 213 26 686 85 856 8 23 14 50 14 61 0
11 5 25 11 31 6 6 9 19 7 29 -4 17 -5 17 -11 -3z"/>
<path d="M6386 5354 c-8 -20 0 -32 14 -18 5 5 5 15 1 22 -6 11 -10 10 -15 -4z"/>
<path d="M6354 5303 c-3 -10 -11 -31 -18 -48 -37 -87 -59 -174 -84 -325 -32
-204 -17 -674 24 -752 8 -14 14 -39 14 -56 0 -16 7 -35 15 -42 8 -7 15 -22 15
-34 0 -23 47 -73 58 -62 4 4 -1 13 -11 20 -9 7 -17 24 -17 37 0 14 -6 33 -14
44 -7 11 -16 45 -19 75 -4 30 -11 80 -17 110 -15 75 -15 601 -1 665 6 28 16
81 21 119 6 39 14 74 20 80 5 5 10 24 10 41 0 16 7 43 15 59 17 32 20 86 5 86
-6 0 -13 -8 -16 -17z"/>
<path d="M1526 4803 c-3 -3 -6 -14 -6 -24 0 -9 -7 -19 -15 -23 -8 -3 -15 -14
-15 -24 0 -11 -7 -25 -15 -32 -8 -7 -15 -23 -15 -37 0 -13 -7 -35 -16 -48 -18
-27 -26 -216 -11 -268 15 -56 27 -13 27 102 0 88 4 122 15 137 8 10 15 33 15
50 0 16 7 39 15 50 8 10 15 31 15 45 0 15 7 29 15 33 8 3 15 12 15 20 0 17
-14 28 -24 19z"/>
<path d="M3143 4764 c-37 -57 -7 -224 41 -224 14 0 42 69 56 137 15 69 -1 107
-47 111 -25 3 -35 -2 -50 -24z"/>
<path d="M5056 4708 c-3 -13 -6 -88 -7 -168 0 -80 -4 -188 -8 -240 -8 -100 0
-129 33 -117 14 6 16 40 16 277 0 223 -2 270 -14 270 -7 0 -16 -10 -20 -22z"/>
<path d="M6711 4702 c-6 -15 -15 -34 -20 -42 -5 -8 -15 -40 -21 -71 -14 -62
-2 -139 28 -189 20 -32 113 -120 128 -120 15 0 73 -65 84 -94 31 -80 33 -104
16 -164 -19 -70 -19 -72 -3 -72 7 0 24 14 37 32 18 25 23 44 23 91 -1 59 -24
123 -50 140 -7 4 -13 12 -13 17 0 10 -36 50 -44 50 -2 0 -19 12 -37 28 -118
99 -129 122 -129 255 0 84 3 106 15 111 16 6 21 41 6 50 -5 3 -14 -6 -20 -22z"/>
<path d="M6055 4693 c-64 -63 -105 -295 -74 -416 16 -64 39 -89 83 -89 41 0
69 20 117 86 29 39 29 39 23 155 -7 135 -10 149 -26 133 -28 -28 -38 -13 -38
58 0 58 -3 71 -19 80 -28 14 -47 13 -66 -7z"/>
<path d="M3057 4693 c-10 -10 -8 -71 2 -78 5 -3 12 -20 16 -38 19 -91 93 -183
196 -244 55 -31 61 -38 56 -62 -3 -14 -11 -67 -18 -117 -11 -78 -10 -98 2
-130 8 -22 21 -39 29 -39 12 0 14 14 12 72 -3 43 2 92 11 125 30 105 31 158 5
158 -13 0 -132 71 -136 82 -2 4 -10 8 -17 8 -32 0 -109 144 -132 248 -5 22
-14 28 -26 15z"/>
<path d="M4617 4693 c-3 -5 -10 -79 -17 -167 -9 -121 -10 -183 -1 -265 6 -58
13 -119 14 -135 1 -16 8 -31 15 -34 9 -3 12 61 12 297 0 267 -5 334 -23 304z"/>
<path d="M2695 4679 c-4 -6 -8 -128 -8 -270 0 -223 2 -261 16 -283 10 -14 17
-34 17 -45 0 -28 11 -52 21 -45 15 9 10 68 -7 92 -14 20 -15 55 -11 270 3 136
6 256 8 267 4 22 -25 33 -36 14z"/>
<path d="M5956 4653 c-3 -10 -10 -25 -15 -33 -34 -56 -45 -105 -45 -219 -1
-95 2 -123 15 -137 9 -11 19 -28 23 -38 5 -15 9 -17 18 -8 9 9 9 20 0 45 -20
56 -24 119 -12 187 7 36 15 84 19 108 5 24 13 48 19 54 17 17 15 58 -2 58 -7
0 -16 -8 -20 -17z"/>
<path d="M1946 4629 c-8 -25 -27 -287 -36 -494 -5 -110 -13 -216 -19 -235 -6
-19 -11 -64 -11 -100 -1 -37 -7 -76 -15 -90 -8 -14 -14 -44 -15 -66 0 -28 -5
-44 -15 -48 -9 -3 -15 -18 -15 -34 0 -16 -7 -35 -15 -42 -8 -7 -15 -20 -15
-30 0 -10 -7 -20 -15 -24 -8 -3 -15 -13 -15 -22 0 -10 -7 -26 -17 -36 -9 -10
-11 -18 -5 -18 15 0 82 84 82 102 0 9 7 21 15 28 8 7 15 20 15 29 0 10 7 26
15 37 8 10 15 33 15 50 0 16 7 39 15 50 8 10 15 37 15 59 0 22 5 56 11 75 15
49 39 334 48 585 6 168 5 213 -5 224 -12 13 -14 13 -18 0z"/>
<path d="M2505 4622 c-47 -40 -76 -192 -58 -307 11 -70 31 -70 82 -1 23 30 41
57 41 60 0 3 14 28 30 56 33 56 38 85 15 94 -8 3 -15 15 -15 27 0 31 -38 89
-58 89 -9 -1 -26 -8 -37 -18z"/>
<path d="M4402 4601 c-48 -67 -65 -238 -32 -325 10 -27 10 -27 34 -9 22 16 78
105 127 201 17 32 17 34 -7 69 -13 20 -24 42 -24 49 0 19 -36 54 -55 54 -8 0
-28 -18 -43 -39z"/>
<path d="M5450 4587 c0 -13 -7 -41 -15 -60 -8 -20 -15 -56 -15 -80 0 -23 -7
-70 -16 -102 -10 -39 -16 -108 -17 -195 -2 -129 -1 -136 22 -168 32 -42 51
-27 27 21 -18 40 -21 146 -5 217 5 25 14 88 19 140 4 52 14 116 20 141 6 25
10 59 8 74 -4 36 -28 46 -28 12z"/>
<path d="M4317 4554 c-4 -4 -7 -17 -7 -29 0 -13 -7 -28 -15 -35 -11 -9 -15
-34 -15 -96 0 -60 4 -87 15 -98 8 -8 15 -19 15 -25 0 -6 7 -11 16 -11 12 0 15
6 9 23 -23 74 -25 123 -8 190 11 45 14 70 7 77 -6 6 -13 7 -17 4z"/>
<path d="M2397 4543 c-4 -3 -7 -18 -7 -32 -1 -14 -7 -37 -15 -51 -21 -37 -18
-107 6 -157 11 -24 24 -43 28 -43 8 0 8 276 0 284 -3 3 -9 3 -12 -1z"/>
<path d="M6780 4168 c-26 -61 -36 -152 -21 -191 21 -53 76 -52 116 1 16 21 20
43 20 98 0 89 -25 144 -66 144 -22 0 -30 -8 -49 -52z"/>
<path d="M1830 4133 c-67 -23 -188 -84 -260 -131 -84 -55 -164 -142 -199 -215
-27 -57 -31 -75 -31 -151 0 -77 4 -94 31 -149 37 -76 60 -101 116 -128 34 -16
56 -20 95 -17 45 5 56 11 97 54 59 63 81 100 124 209 33 85 71 328 72 465 0
66 -7 77 -45 63z"/>
<path d="M4645 4077 c-4 -10 -3 -28 3 -40 9 -20 10 -21 17 -4 4 10 3 28 -3 40
-9 20 -10 21 -17 4z"/>
<path d="M4559 3563 c-15 -2 -37 -15 -50 -29 -21 -22 -24 -37 -27 -114 -2 -48
1 -96 6 -107 6 -11 29 -26 52 -33 93 -31 180 41 180 147 0 97 -63 151 -161
136z"/>
</g>
</svg>
